<?xml version="1.0" encoding="UTF-8"?>
<svg id="Ebene_2" data-name="Ebene 2" xmlns="http://www.w3.org/2000/svg" viewBox="0 0 498.62 113.39">
  <defs>
    <style>
      .cls-1 {
        fill: #69b978;
      }

      .cls-2 {
        fill: #fff;
      }
    </style>
  </defs>
  <g id="logo_service_pcts_bg_rgb">
    <g id="logo_service_pcts_bg_rgb-2" data-name="logo_service_pcts_bg_rgb">
      <g>
        <path class="cls-1" d="M368.93,66.41v15.77h-6.94v-41.6h16.26c4.59,0,8.19,1.19,10.79,3.56,2.6,2.37,3.9,5.49,3.9,9.36s-1.3,7.03-3.9,9.39c-2.6,2.35-6.2,3.53-10.79,3.53h-9.32ZM368.93,60.84h9.32c2.57,0,4.5-.69,5.8-2.06,1.29-1.37,1.94-3.11,1.94-5.23s-.65-3.88-1.94-5.29c-1.3-1.41-3.23-2.12-5.8-2.12h-9.32v14.69Z"/>
        <path class="cls-1" d="M429.48,68.38l.06.17c.08,4.21-1.29,7.63-4.1,10.27-2.81,2.64-6.62,3.96-11.42,3.96s-8.81-1.63-11.84-4.9c-3.04-3.27-4.56-7.44-4.56-12.53v-7.92c0-5.07,1.5-9.24,4.5-12.53,3-3.29,6.9-4.93,11.7-4.93s8.79,1.29,11.62,3.87,4.21,6.05,4.13,10.42l-.06.17h-6.71c0-2.8-.76-4.98-2.27-6.54-1.51-1.56-3.75-2.34-6.7-2.34s-5.09,1.12-6.76,3.37c-1.67,2.25-2.5,5.06-2.5,8.45v7.96c0,3.43.85,6.26,2.56,8.51,1.71,2.25,4,3.37,6.9,3.37s5.06-.77,6.54-2.31c1.49-1.54,2.23-3.71,2.23-6.52h6.69Z"/>
        <path class="cls-1" d="M464.5,46.15h-12.57v36.03h-6.94v-36.03h-12.57v-5.57h32.09v5.57Z"/>
        <path class="cls-1" d="M491.67,71.47c0-1.73-.64-3.14-1.93-4.24-1.29-1.1-3.56-2.09-6.81-2.96-4.65-1.22-8.22-2.83-10.73-4.84-2.51-2.01-3.76-4.64-3.76-7.9s1.39-6.11,4.16-8.29c2.77-2.17,6.35-3.26,10.73-3.26s8.24,1.23,11.02,3.7c2.77,2.47,4.11,5.42,4.01,8.87l-.06.17h-6.66c0-2.13-.72-3.86-2.17-5.19-1.45-1.32-3.51-1.99-6.2-1.99-2.53,0-4.48.55-5.84,1.65-1.36,1.1-2.04,2.53-2.04,4.28,0,1.58.74,2.89,2.21,3.93,1.48,1.05,3.92,2.03,7.33,2.97,4.48,1.2,7.88,2.86,10.2,4.97,2.32,2.11,3.49,4.81,3.49,8.09,0,3.47-1.39,6.22-4.16,8.27s-6.42,3.07-10.93,3.07-8.15-1.16-11.43-3.47-4.87-5.47-4.77-9.47l.06-.17h6.69c0,2.53.88,4.42,2.63,5.67,1.75,1.25,4.03,1.87,6.83,1.87,2.57,0,4.57-.52,6-1.55,1.43-1.03,2.14-2.43,2.14-4.2Z"/>
      </g>
      <g id="logo_service_openshift_bg_rgb">
        <path class="cls-2" d="M96.78,16.6c-22.14-22.14-58.04-22.14-80.18,0-22.14,22.14-22.14,58.04,0,80.18,22.14,22.14,58.04,22.14,80.18,0,22.14-22.14,22.14-58.03,0-80.18ZM92.41,36.18c-1.85,5.52-7.79,22.07-7.79,22.07-1.99,5.39-13.62,5.35-29.41,5.39,0,0,10.2-1.44,13.15-7.14,2.95-5.69,6.42-17.23,6.42-17.23-15.71,0-17.11,5.5-17.11,5.5,0,0-9.93,27.77-13.47,38.01-27.51,0-23.12-13.59-23.12-13.59l13.76-38.61h27.88l-1.86,5.56s2.27-5.56,17.64-5.56c0,0,15.75.07,13.9,5.59Z"/>
        <g>
          <path class="cls-2" d="M146.14,67.85v14.25h-9.68v-41.58h16.88c4.93,0,8.84,1.26,11.74,3.78,2.9,2.52,4.34,5.82,4.34,9.9s-1.45,7.39-4.34,9.9c-2.89,2.5-6.81,3.75-11.74,3.75h-7.2ZM146.14,60.43h7.2c2.09,0,3.69-.57,4.78-1.73,1.09-1.15,1.64-2.63,1.64-4.44s-.55-3.36-1.64-4.54c-1.09-1.18-2.69-1.77-4.78-1.77h-7.2v12.48Z"/>
          <path class="cls-2" d="M207.6,40.52v27.25c0,4.74-1.58,8.42-4.73,11.03-3.15,2.61-7.28,3.91-12.38,3.91s-9.32-1.3-12.48-3.91c-3.16-2.61-4.74-6.28-4.74-11.03v-27.25h9.68v27.25c0,2.55.66,4.44,1.97,5.67,1.31,1.23,3.17,1.84,5.57,1.84s4.21-.61,5.5-1.83c1.29-1.22,1.93-3.11,1.93-5.68v-27.25h9.68Z"/>
          <path class="cls-2" d="M223.29,74.68h18.94v7.42h-30.82v-4.34l18.59-29.82h-18.68v-7.43h30.64v4.17l-18.68,29.99Z"/>
          <path class="cls-2" d="M257.12,74.68h18.93v7.42h-30.81v-4.34l18.59-29.82h-18.68v-7.43h30.64v4.17l-18.68,29.99Z"/>
          <path class="cls-2" d="M289.36,74.68h17.91v7.42h-27.59v-41.58h9.68v34.16Z"/>
          <path class="cls-2" d="M336.61,64.31h-16.31v10.37h19.22v7.42h-28.9v-41.58h28.96v7.43h-19.28v8.94h16.31v7.43Z"/>
        </g>
      </g>
    </g>
  </g>
</svg>