<svg xmlns="http://www.w3.org/2000/svg" xmlns:xlink="http://www.w3.org/1999/xlink" contentStyleType="text/css" data-diagram-type="DESCRIPTION" height="281px" preserveAspectRatio="none" style="width:215px;height:281px;background:#FFFFFF;" version="1.1" viewBox="0 0 215 281" width="215px" zoomAndPan="magnify"><defs/><g><!--entity PostgreSQL--><g class="entity" data-entity="PostgreSQL" data-source-line="2" data-uid="ent0005" id="entity_PostgreSQL"><path d="M57.64,229.59 C57.64,219.59 108.0165,219.59 108.0165,219.59 C108.0165,219.59 158.3929,219.59 158.3929,229.59 L158.3929,254.8869 C158.3929,264.8869 108.0165,264.8869 108.0165,264.8869 C108.0165,264.8869 57.64,264.8869 57.64,254.8869 L57.64,229.59" fill="#F1F1F1" style="stroke:#181818;stroke-width:0.5;"/><path d="M57.64,229.59 C57.64,239.59 108.0165,239.59 108.0165,239.59 C108.0165,239.59 158.3929,239.59 158.3929,229.59" fill="none" style="stroke:#181818;stroke-width:0.5;"/><text fill="#000000" font-family="sans-serif" font-size="14" lengthAdjust="spacing" textLength="80.7529" x="67.64" y="256.5851">PostgreSQL</text></g><!--entity Frontend (Angular) --><g class="entity" data-entity="Frontend .Angular. " data-source-line="1" data-uid="ent0002" id="entity_Frontend .Angular. "><rect fill="#F1F1F1" height="46.2969" rx="2.5" ry="2.5" style="stroke:#181818;stroke-width:0.5;" width="177.3682" x="19.34" y="7"/><rect fill="#F1F1F1" height="10" style="stroke:#181818;stroke-width:0.5;" width="15" x="176.7082" y="12"/><rect fill="#F1F1F1" height="2" style="stroke:#181818;stroke-width:0.5;" width="4" x="174.7082" y="14"/><rect fill="#F1F1F1" height="2" style="stroke:#181818;stroke-width:0.5;" width="4" x="174.7082" y="18"/><text fill="#000000" font-family="sans-serif" font-size="14" lengthAdjust="spacing" textLength="132.918" x="34.34" y="39.9951">Frontend (Angular)</text></g><!--entity Backend (Spring Boot) --><g class="entity" data-entity="Backend .Spring Boot. " data-source-line="1" data-uid="ent0003" id="entity_Backend .Spring Boot. "><rect fill="#F1F1F1" height="46.2969" rx="2.5" ry="2.5" style="stroke:#181818;stroke-width:0.5;" width="202.0391" x="7" y="113.3"/><rect fill="#F1F1F1" height="10" style="stroke:#181818;stroke-width:0.5;" width="15" x="189.0391" y="118.3"/><rect fill="#F1F1F1" height="2" style="stroke:#181818;stroke-width:0.5;" width="4" x="187.0391" y="120.3"/><rect fill="#F1F1F1" height="2" style="stroke:#181818;stroke-width:0.5;" width="4" x="187.0391" y="124.3"/><text fill="#000000" font-family="sans-serif" font-size="14" lengthAdjust="spacing" textLength="157.5889" x="22" y="146.2951">Backend (Spring Boot)</text></g><!--link Frontend (Angular)  to Backend (Spring Boot) --><g class="link" data-entity-1="Frontend .Angular. " data-entity-2="Backend .Spring Boot. " data-link-type="dependency" data-source-line="1" data-uid="lnk4" id="link_Frontend .Angular. _Backend .Spring Boot. "><path d="M108.02,59.78 C108.02,77.27 108.02,89.38 108.02,106.86" fill="none" id="Frontend (Angular) -Backend (Spring Boot) " style="stroke:#181818;stroke-width:1;"/><polygon fill="#181818" points="108.02,53.78,104.02,62.78,108.02,58.78,112.02,62.78,108.02,53.78" style="stroke:#181818;stroke-width:1;"/><polygon fill="#181818" points="108.02,112.86,112.02,103.86,108.02,107.86,104.02,103.86,108.02,112.86" style="stroke:#181818;stroke-width:1;"/></g><!--link Backend (Spring Boot)  to PostgreSQL--><g class="link" data-entity-1="Backend .Spring Boot. " data-entity-2="PostgreSQL" data-link-type="dependency" data-source-line="2" data-uid="lnk6" id="link_Backend .Spring Boot. _PostgreSQL"><path d="M108.02,165.97 C108.02,183.5 108.02,195.69 108.02,213.12" fill="none" id="Backend (Spring Boot) -PostgreSQL" style="stroke:#181818;stroke-width:1;"/><polygon fill="#181818" points="108.02,159.97,104.02,168.97,108.02,164.97,112.02,168.97,108.02,159.97" style="stroke:#181818;stroke-width:1;"/><polygon fill="#181818" points="108.02,219.12,112.02,210.12,108.02,214.12,104.02,210.12,108.02,219.12" style="stroke:#181818;stroke-width:1;"/></g><!--SRC=[YtOhoiyhISrBKT1mp4ilpKaiqbI8LR3HrRLJY7PAJCu6omGN56NcfIiuvUUN06MvS4b0jGNa5vUa5wK61_h4Sd6b99Oa9YKMfoee8OIL5AgvQW40]--></g></svg>